<svg xmlns="http://www.w3.org/2000/svg" fill="currentColor" preserveAspectRatio="xMidYMid meet" viewBox="0 0 131 130" x="0" y="0"><g fill="none" transform="translate(.45)" fill-rule="evenodd"><rect height="130" rx="20" width="130"></rect><g fill-rule="nonzero"><g stroke="#d8ffcf" stroke-linecap="square" stroke-width="3"><path d="M82.058 36.714l14.504 18.25M72.958 38.368l14.504 18.25M71.07 47.013l9.18 12.542M49.96 70.696l15 16.468M40.033 72.35l15 16.468M37.317 80.168l9.677 10.76"></path></g><path d="M104.7 56.787c2.214-2.784 1.823-6.782-.874-8.931-2.698-2.149-6.68-1.634-8.895 1.15-8.394 10.55-16.583 13.236-26.13 9.077-15.011-6.539-29.603-1.995-42.41 12.65-2.342 2.678-2.142 6.696.446 8.976 2.588 2.28 6.585 1.957 8.926-.72 9.314-10.65 18.102-13.387 27.73-9.193 15.09 6.574 29.346 1.898 41.207-13.01z" fill="#9dff85"></path><path d="M26.458 79.346c-2.223-2.325-2.289-6.072-.067-8.613C39.198 56.088 53.79 51.544 68.8 58.083c9.547 4.16 17.736 1.473 26.13-9.077 2.215-2.784 6.197-3.299 8.895-1.15 1.603 1.277 2.391 3.208 2.302 5.148a6.114 6.114 0 0 0-.608-.555c-2.698-2.148-6.68-1.634-8.895 1.15-8.394 10.55-16.583 13.236-26.13 9.077-15.01-6.539-29.602-1.995-42.41 12.65a6.558 6.558 0 0 0-1.627 4.02z" fill="#8bf472"></path><path d="M104.7 56.787c2.214-2.784 1.823-6.782-.874-8.931-2.698-2.149-6.68-1.634-8.895 1.15-8.394 10.55-16.583 13.236-26.13 9.077-15.011-6.539-29.603-1.995-42.41 12.65-2.342 2.678-2.142 6.696.446 8.976 2.588 2.28 6.585 1.957 8.926-.72 9.314-10.65 18.102-13.387 27.73-9.193 15.09 6.574 29.346 1.898 41.207-13.01z" stroke="#4aa334" stroke-width="2"></path><g><path d="M52.615 102.06c-3.065 1.806-6.97.862-8.722-2.108-1.753-2.97-.689-6.842 2.376-8.648 11.616-6.844 15.416-14.58 12.626-24.613-4.387-15.774 2.144-29.592 18.43-40.236 2.977-1.946 6.928-1.19 8.825 1.691 1.898 2.88 1.022 6.793-1.955 8.739-11.843 7.741-15.776 16.063-12.963 26.18 4.41 15.858-2.205 29.325-18.617 38.996z" fill="#9dff85"></path><path d="M85.843 27.72c-1.992-2.525-5.694-3.112-8.519-1.265C61.04 37.1 54.508 50.917 58.894 66.69c2.79 10.033-1.009 17.77-12.625 24.613-3.065 1.806-4.129 5.678-2.376 8.648 1.041 1.765 2.843 2.815 4.778 2.997a6.114 6.114 0 0 1-.466-.68c-1.752-2.97-.688-6.842 2.377-8.648 11.616-6.844 15.416-14.58 12.625-24.613-4.386-15.774 2.145-29.592 18.43-40.236a6.558 6.558 0 0 1 4.206-1.052z" fill="#8bf472"></path><path d="M52.615 102.06c-3.065 1.806-6.97.862-8.722-2.108-1.753-2.97-.689-6.842 2.376-8.648 11.616-6.844 15.416-14.58 12.626-24.613-4.387-15.774 2.144-29.592 18.43-40.236 2.977-1.946 6.928-1.19 8.825 1.691 1.898 2.88 1.022 6.793-1.955 8.739-11.843 7.741-15.776 16.063-12.963 26.18 4.41 15.858-2.205 29.325-18.617 38.996z" stroke="#4aa334" stroke-width="2"></path></g></g></g></svg>