<svg xmlns="http://www.w3.org/2000/svg" fill="currentColor" preserveAspectRatio="xMidYMid meet" viewBox="0 0 131 130" x="0" y="0"><g fill="none" fill-rule="evenodd"><rect height="130" rx="20" width="130" x=".451"></rect><path d="M62.52 48.341c1.746-.42 3.677.547 4.416 2.187.745 1.541.342 3.542-.953 4.658-1.22 1.126-3.162 1.322-4.584.473-1.353-.759-2.15-2.378-1.945-3.924.172-1.635 1.467-3.066 3.066-3.394zM46.134 43.623h36.755z" fill="#fff"></path><path d="M47.162 43.624h34.67" stroke="#ce5555" stroke-linecap="round" stroke-width="2"></path><path d="M51.539 44.524V64.6l-18.65 25.388c-3.298 4.017-.439 10.06 4.757 10.06h54.138c5.198 0 8.057-6.043 4.759-10.06L77.893 64.6V44.524" fill="#ffefef"></path><path d="M51.539 44.524V64.6l-18.65 25.388c-3.298 4.017-.439 10.06 4.757 10.06h54.138c5.198 0 8.057-6.043 4.759-10.06L77.893 64.6V44.524" stroke="#333" stroke-linecap="round" stroke-width="1.2"></path><path d="M51.603 50.356h8.813" fill="#fff"></path><path d="M51.603 50.356h8.813" stroke="#ce5555" stroke-linecap="round" stroke-width="2"></path><path d="M51.897 56.965h4.26" fill="#fff"></path><path d="M51.897 56.965h4.26" stroke="#ce5555" stroke-linecap="round" stroke-width="2"></path><path d="M62.766 62.18a2.57 2.57 0 0 0 2.57 2.569 2.57 2.57 0 1 0 0-5.14 2.57 2.57 0 0 0-2.57 2.57" fill="#ffb1b1"></path><path d="M62.766 62.18a2.57 2.57 0 0 0 2.57 2.569 2.57 2.57 0 1 0 0-5.14 2.57 2.57 0 0 0-2.57 2.57z" stroke="#ce5555" stroke-linecap="round" stroke-width="2"></path><path d="M62.034 33.61a4.553 4.553 0 1 0 9.105 0 4.553 4.553 0 0 0-9.105 0" fill="#ffb1b1"></path><path d="M62.034 33.61a4.553 4.553 0 1 0 9.105 0 4.553 4.553 0 0 0-9.105 0z" stroke="#ce5555" stroke-linecap="round" stroke-width="2"></path><path d="M96.542 89.988L77.892 64.6V44.524h-5.58V64.6l6.31 25.388c3.3 4.017.44 10.06-4.757 10.06h17.92c5.198 0 8.055-6.043 4.757-10.06" fill="#ffe1e1"></path><path d="M37.647 100.049h54.138c5.198 0 8.055-6.044 4.757-10.061l-6.93-9.435-.487.277c-6.193 2.562-13.07 5.702-24.596-1.906-11.017-7.27-24.134.846-24.134.846L32.89 89.988c-3.297 4.017-.44 10.06 4.757 10.06" fill="#ffb1b1"></path><path d="M37.647 100.049h54.138c5.198 0 8.055-6.044 4.757-10.061l-6.93-9.435-.487.277c-6.193 2.562-13.07 5.702-24.596-1.906-11.017-7.27-24.134.846-24.134.846L32.89 89.988c-3.297 4.017-.44 10.06 4.757 10.06z" stroke="#333" stroke-linecap="round" stroke-width="1.2"></path><path d="M96.542 89.988l-6.93-9.435-.487.277c-3.55 1.468-7.328 3.116-12.075 2.832l1.572 6.326c1.476 4.653.44 10.06-4.757 10.06h17.92c5.198 0 8.055-6.043 4.757-10.06" fill="#ff8989"></path><path d="M37.647 100.049h54.138c5.198 0 8.055-6.044 4.757-10.061l-6.93-9.435-.487.277c-6.193 2.562-13.07 5.702-24.596-1.906-11.017-7.27-24.134.846-24.134.846L32.89 89.988c-3.297 4.017-.44 10.06 4.757 10.06z" stroke="#ce5555" stroke-linecap="round" stroke-width="2"></path><path d="M51.539 44.524V64.6l-18.65 25.388c-3.298 4.017-.439 10.06 4.757 10.06h54.138c5.198 0 8.057-6.043 4.759-10.06L77.893 64.6V44.524" stroke="#ce5555" stroke-linecap="round" stroke-width="2"></path><path d="M74.957 72.02a3.893 3.893 0 1 1-7.787 0 3.893 3.893 0 0 1 7.787 0" fill="#ffb1b1"></path><path d="M74.957 72.02a3.893 3.893 0 1 1-7.787 0 3.893 3.893 0 0 1 7.787 0z" stroke="#ce5555" stroke-linecap="round" stroke-width="2"></path></g></svg>