<svg xmlns="http://www.w3.org/2000/svg" fill="currentColor" preserveAspectRatio="xMidYMid meet" viewBox="0 0 131 130" x="0" y="0"><g fill="none" fill-rule="evenodd"><rect height="130" rx="20" width="130" x=".451"></rect><path d="M98.608 53.843H95c-1.23 0-2.17-.639-2.624-1.737l-5.634-15.418c-.535-1.464-1.91-2.253-3.457-2.441-4.164-.51-9.576-1.862-11.545-1.862-2.426 0-3.919.747-7.464.747-3.545 0-5.411-4.479-6.717-5.785s-7.65 1.493-11.382 1.493c-3.732 0-7.837 2.426-7.837 5.597 0 3.172-3.545 5.225-7.463 9.143-3.918 3.919 1.213 13.341 4.105 16.233 2.892 2.892 6.717 3.545 11.195 1.68 4.478-1.867 6.064-1.027 8.21 1.119 2.145 2.146 2.239 5.224 4.85 7.837s1.307 12.314 1.307 16.606c0 4.291 3.545 9.702 6.344 12.501 2.799 2.799 3.172 1.866 7.464 0 4.291-1.866 7.65-10.822 11.568-14.74 3.918-3.919 3.172-9.703 3.172-13.061s7.277-9.89 11.008-13.621c3.732-3.732-1.492-4.292-1.492-4.292z" fill="#9ba5e6"></path><g fill="#7f8cdd"><path d="M39.254 58.03c-3.005-3.004-9.022-13.445-4.314-18.096h-.124C33.65 41 32.288 42.169 30.877 43.58 26.96 47.5 32.09 56.921 34.982 59.813c2.892 2.892 6.717 3.545 11.195 1.68.501-.21.965-.383 1.399-.526-3.226.364-6.038-.652-8.322-2.936zM64.2 86.725c0-4.435 1.306-14.464-1.307-17.164-2.612-2.7-2.705-5.881-4.851-8.1-2.146-2.217-3.732-3.085-8.21-1.156-.202.087-.403.167-.603.244 2.318-.375 3.59.494 5.158 2.063 2.146 2.146 2.239 5.224 4.851 7.837 2.612 2.612 1.306 12.314 1.306 16.606 0 4.291 3.546 9.702 6.344 12.501 2.086 2.086 2.826 2.099 4.843 1.197-2.95-2.334-7.532-9.058-7.532-14.028z"></path></g><path d="M98.608 53.843H95c-1.23 0-2.17-.639-2.624-1.737l-5.634-15.418c-.535-1.464-1.91-2.253-3.457-2.441-4.164-.51-9.576-1.862-11.545-1.862-2.426 0-3.919.747-7.464.747-3.545 0-5.411-4.479-6.717-5.785s-7.65 1.493-11.382 1.493c-3.732 0-7.837 2.426-7.837 5.597 0 3.172-3.545 5.225-7.463 9.143-3.918 3.919 1.213 13.341 4.105 16.233 2.892 2.892 6.717 3.545 11.195 1.68 4.478-1.867 6.064-1.027 8.21 1.119 2.145 2.146 2.239 5.224 4.85 7.837s1.307 12.314 1.307 16.606c0 4.291 3.545 9.702 6.344 12.501 2.799 2.799 3.172 1.866 7.464 0 4.291-1.866 7.65-10.822 11.568-14.74 3.918-3.919 3.172-9.703 3.172-13.061s7.277-9.89 11.008-13.621c3.732-3.732-1.492-4.292-1.492-4.292z" stroke="#4d5aaa" stroke-width="2"></path><path d="M99.074 79.312c1.377.639 1.773 2.145.84 4.291s2.472 6.11-.84 9.423c-3.311 3.312-4.198 1.959-6.157 0-1.959-1.96-2.192-3.312-1.12-4.385s.98-4.898 2.333-6.25c1.353-1.354 2.332-4.292 4.944-3.08z" fill="#7f8cdd"></path><path d="M96.656 93.026c-1.96-1.96-2.192-3.312-1.12-4.385s.98-4.898 2.333-6.25c.675-.676 1.257-1.746 1.996-2.498a2.363 2.363 0 0 0-.79-.582c-2.613-1.212-3.592 1.726-4.945 3.08-1.353 1.352-1.26 5.177-2.332 6.25s-.84 2.425 1.12 4.385c1.68 1.68 2.573 2.913 4.885 1.136-.356-.324-.727-.716-1.147-1.136z" fill="#6573ce"></path><path d="M99.074 79.312c1.377.639 1.773 2.145.84 4.291s2.472 6.11-.84 9.423c-3.311 3.312-4.198 1.959-6.157 0-1.959-1.96-2.192-3.312-1.12-4.385s.98-4.898 2.333-6.25c1.353-1.354 2.332-4.292 4.944-3.08z" stroke="#4d5aaa" stroke-width="2"></path></g></svg>