<svg xmlns="http://www.w3.org/2000/svg" fill="currentColor" preserveAspectRatio="xMidYMid meet" viewBox="0 0 131 130" x="0" y="0"><g fill="none" fill-rule="evenodd"><rect height="130" rx="20" width="130" x=".451"></rect><g fill-rule="nonzero"><path d="M126.45 90.283h-50L102.54 59z" fill="#ffd4c1"></path><path d="M126.45 90.283H93.92L102.54 59z" fill="#ffede5"></path><path d="M126.45 90.283h-50L102.54 59z" stroke="#dd855c" stroke-width="2"></path><path d="M111.45 90.33h-83L71.759 38.4z" fill="#ffd4c1"></path><path d="M111.45 90.33h-54L71.759 38.4z" fill="#ffede5"></path><path d="M111.45 90.33h-83L71.759 38.4z" stroke="#dd855c" stroke-width="2"></path><path d="M55.45 90.283h-50L31.54 59z" fill="#ffd4c1"></path><path d="M55.45 90.283H22.92L31.54 59z" fill="#ffede5"></path><g stroke="#dd855c" stroke-width="2"><path d="M55.45 90.283h-50L31.54 59z"></path><path d="M90.95 64.5H71M72.873 73.5H42.999M60.45 52.5H71M83.45 71l-2-6M67.45 53l-2 6M63.45 67l-2 6M65.45 81.5h30.641M75.95 81.5v5M19.95 73.5h10.5M48.95 83H35.718" stroke-linecap="round"></path></g></g></g></svg>