<svg xmlns="http://www.w3.org/2000/svg" fill="currentColor" preserveAspectRatio="xMidYMid meet" viewBox="0 0 131 130" x="0" y="0"><g fill="none" fill-rule="evenodd"><rect height="130" rx="20" width="130" x=".451"></rect><g transform="translate(29.45 31)"><rect fill="#80dee1" height="66" rx="11" stroke="#2d9295" width="70" x="1" y="1" fill-rule="nonzero" stroke-width="2"></rect><path d="M46 0H17C10.925 0 6 4.925 6 11v46c0 6.075 4.925 11 11 11h35-41C4.925 68 0 63.075 0 57V11C0 4.925 4.925 0 11 0z" fill="#fff" fill-rule="nonzero"></path><path d="M11 1C5.477 1 1 5.477 1 11v46c0 5.523 4.477 10 10 10h27c18.225 0 33-14.775 33-33V11c0-5.523-4.477-10-10-10z" fill="#b3f4ff" stroke="#2d9295" fill-rule="nonzero" stroke-width="2"></path><g fill="#4bbec1"><path d="M49.48 20.88h-7c-.8 0-1.48-.64-1.48-1.44S41.68 18 42.48 18h17.04c.8 0 1.44.64 1.44 1.44s-.64 1.44-1.44 1.44h-7.04z"></path><path d="M11.617 19.805c0-.906.735-1.64 1.64-1.64h6.876V11.26a1.67 1.67 0 0 1 3.34 0v6.904h6.875a1.64 1.64 0 1 1 0 3.281h-6.875v6.885a1.67 1.67 0 1 1-3.34 0v-6.885h-6.875a1.64 1.64 0 0 1-1.64-1.64z" fill-rule="nonzero"></path><path d="M49.48 48.88h-7c-.8 0-1.48-.64-1.48-1.44S41.68 46 42.48 46h17.04c.8 0 1.44.64 1.44 1.44s-.64 1.44-1.44 1.44h-7.04z"></path><path d="M29.296 43.473l-4.879 4.879 4.88 4.879a1.34 1.34 0 0 1-1.896 1.895l-4.879-4.879-4.879 4.88a1.58 1.58 0 0 1-2.234-2.235l4.879-4.88-4.88-4.878a1.34 1.34 0 0 1 1.896-1.895l4.879 4.879 4.879-4.88a1.58 1.58 0 0 1 2.234 2.235z" fill-rule="nonzero"></path><circle cx="51" cy="41" r="2" fill-rule="nonzero"></circle><circle cx="51" cy="54" r="2" fill-rule="nonzero"></circle></g></g></g></svg>