<svg xmlns="http://www.w3.org/2000/svg" fill="currentColor" preserveAspectRatio="xMidYMid meet" viewBox="0 0 131 130" x="0" y="0"><g fill="none" fill-rule="evenodd"><rect height="130" rx="20" width="130" x=".451"></rect><g transform="translate(28.45 29)"><g stroke="#ec9d1d" stroke-width="2"><ellipse cx="37.44" cy="36" fill="#ffe7b9" rx="12.48" ry="36" fill-rule="nonzero"></ellipse><ellipse cx="37.44" cy="36" fill="#ffe7b9" rx="12.48" ry="36" transform="rotate(-60 37.44 36)" fill-rule="nonzero"></ellipse><ellipse cx="37.44" cy="36" fill="#ffe7b9" rx="12.48" ry="36" transform="scale(-1 1) rotate(-60 0 100.848)" fill-rule="nonzero"></ellipse><ellipse cx="37.44" cy="36" rx="12.48" ry="36" transform="rotate(-60 37.44 36)"></ellipse><ellipse cx="37.44" cy="36" rx="12.48" ry="36"></ellipse></g><path d="M35.79 28.892a7.143 7.143 0 0 1 4.637.82 7.235 7.235 0 0 1 3.37 4.186 7.337 7.337 0 0 1-.532 5.599 7.192 7.192 0 0 1-4.105 3.463 7.132 7.132 0 0 1-4.439 0 7.192 7.192 0 0 1-4.105-3.463c-.99-1.832-1.127-4.101-.38-6.046.88-2.374 3.074-4.174 5.554-4.559z" fill="#fff"></path><path d="M41.765 30.678a7.266 7.266 0 0 1 2.033 3.22 7.337 7.337 0 0 1-.533 5.599 7.192 7.192 0 0 1-4.105 3.463 7.132 7.132 0 0 1-4.439 0 7.192 7.192 0 0 1-4.105-3.463 6.949 6.949 0 0 1-.422-.944 7.129 7.129 0 0 0 7.046 1.527 7.192 7.192 0 0 0 4.105-3.463 7.337 7.337 0 0 0 .42-5.94z" fill="#ffd37e" opacity=".59"></path><path d="M35.79 28.892a7.143 7.143 0 0 1 4.637.82 7.235 7.235 0 0 1 3.37 4.186 7.337 7.337 0 0 1-.532 5.599 7.192 7.192 0 0 1-4.105 3.463 7.132 7.132 0 0 1-4.439 0 7.192 7.192 0 0 1-4.105-3.463c-.99-1.832-1.127-4.101-.38-6.046.88-2.374 3.074-4.174 5.554-4.559z" stroke="#ec9d1d" stroke-width="2"></path><circle cx="15.84" cy="15.84" fill="#fff" r="3.36" stroke="#ec9d1d" fill-rule="nonzero" stroke-width="2"></circle><circle cx="45.6" cy="62.88" fill="#fff" r="3.36" stroke="#ec9d1d" fill-rule="nonzero" stroke-width="2"></circle><circle cx="63.84" cy="29.28" fill="#fff" r="3.36" stroke="#ec9d1d" fill-rule="nonzero" stroke-width="2"></circle></g></g></svg>